<?xml version="1.0" encoding="utf-8"?>
<!-- Generator: Adobe Illustrator 24.0.2, SVG Export Plug-In . SVG Version: 6.00 Build 0)  -->
<svg version="1.1" id="Layer_1" xmlns="http://www.w3.org/2000/svg" xmlns:xlink="http://www.w3.org/1999/xlink" x="0px" y="0px"
	 viewBox="0 0 100 100" style="enable-background:new 0 0 100 100;" xml:space="preserve">
<style type="text/css">
	.st0{fill:#304145;}
	.st1{fill:#FFC415;}
</style>
<path class="st0" d="M64.9,51.1c0,4.2-2.3,7.9-6.9,11c-1.7,1.2-3.1,1.9-3.9,2.1c-0.7,0.1-2.2,0.1-4.4-0.1c-1.1-0.1-2.2-0.7-3.4-1.8
	s-1.8-2.1-1.9-3.1c0-1-0.1-4.6-0.1-10.8h-3L38,45.1h6.6c0-0.3,0-2.5,0-6.5c0-1.6-0.8-2.3-2.4-2.3c-0.7,0-1.2,0.1-1.4,0.3
	c-0.2-0.6-0.6-1.7-1.1-3.2c2-0.8,3.6-1,4.8-0.6c2.4,0.8,3.5,2.5,3.5,4.9c0,1.4,0,3,0.1,4.8c0,1.1,0,2,0,2.6H50l3.3,3.3h-5.2v9.3
	c0,1.9,1.1,2.9,3.4,2.9c2.8,0,5-1.5,6.7-4.5c1.1-2,1.6-3.3,1.5-3.8c-1.7,0.1-3-0.2-4-1s-1.4-2-1.2-3.6c0.3-2.7,1.8-4,4.5-4
	C62.9,43.6,64.9,46.1,64.9,51.1z"/>
<path class="st1" d="M51.6,82.5c-19.2,0-34.9-15.6-34.9-34.9s15.6-34.9,34.9-34.9c9.7,0,19.1,4.1,25.7,11.2c0.9,1,0.9,2.6-0.1,3.6
	c-1,0.9-2.6,0.9-3.6-0.1C68,21.3,60,17.8,51.7,17.8c-16.4,0-29.8,13.4-29.8,29.8s13.4,29.8,29.8,29.8c8,0,15.5-3.1,21.2-8.8
	c1-1,2.6-1,3.6,0s1,2.6,0,3.6C69.8,78.9,61,82.5,51.6,82.5z M78,31.4C78,31.4,77.9,31.4,78,31.4l-11.4-0.2c-1.5,0-2.7-1.3-2.7-2.8
	s1.3-2.8,2.8-2.7l8.5,0.2L75,17.4c0-1.5,1.2-2.8,2.7-2.8c1.6,0,2.8,1.2,2.8,2.7l0.3,11.4c0,0.8-0.3,1.5-0.8,2
	C79.4,31.1,78.7,31.4,78,31.4z"/>
</svg>
